# xmcd
#
# Track frame offsets: 
#        150
#        30637
#        61025
#        136293
#        161607
#        182064
#
# Disc length: 3108 seconds
#
# Revision: 0
# Processed by: cddbd v1.5.2PL0 Copyright (c) Steve Scherf et al.
# Submitted via: ExactAudioCopy v0.95a5
#
DISCID=460c2206
DTITLE=John Butler Trio - Live at St. Gallen Disc 2
DYEAR=2006
DGENRE=Rock
TTITLE0=Peaches and Cream
TTITLE1=Pickapart
TTITLE2=Betterman
TTITLE3=Hello
TTITLE4=Zebra
TTITLE5=Take
EXTD=
EXTT0=
EXTT1=
EXTT2=
EXTT3=
EXTT4=
EXTT5=
PLAYORDER=
